<svg id="Layer_1" data-name="Layer 1" xmlns="http://www.w3.org/2000/svg" viewBox="0 0 313.37 49.53"><defs><style>.cls-1{fill:#f63;}.cls-2{fill:none;stroke:#f63;stroke-miterlimit:10;}</style></defs><title>zion vem buttons</title><path class="cls-1" d="M298.19,7.27a4,4,0,0,1,4,4v27a4,4,0,0,1-4,4h-283a4,4,0,0,1-4-4v-27a4,4,0,0,1,4-4h283m0-1h-283a5,5,0,0,0-5,5v27a5,5,0,0,0,5,5h283a5,5,0,0,0,5-5v-27a5,5,0,0,0-5-5Z"/><path class="cls-1" d="M106.15,27.48h-3.84l-.89,3H100l3.66-11.37h1.23l3.67,11.37h-1.47Zm-3.47-1.23h3.1l-1.55-5.17Z"/><path class="cls-1" d="M110.47,30.45V19.08h2.71a3.91,3.91,0,0,1,3.09,1.24,5.16,5.16,0,0,1,1.1,3.51v1.9a5,5,0,0,1-1.12,3.49A4.14,4.14,0,0,1,113,30.45Zm1.42-10.14v8.92H113a2.67,2.67,0,0,0,2.21-.87A4.09,4.09,0,0,0,116,25.8v-2a4.12,4.12,0,0,0-.69-2.63,2.56,2.56,0,0,0-2.09-.84Z"/><path class="cls-1" d="M120,30.45V19.08h2.71a3.89,3.89,0,0,1,3.09,1.24,5.11,5.11,0,0,1,1.1,3.51v1.9a5,5,0,0,1-1.11,3.49,4.18,4.18,0,0,1-3.25,1.23Zm1.43-10.14v8.92h1.15a2.65,2.65,0,0,0,2.2-.87,4.09,4.09,0,0,0,.71-2.56v-2a4.12,4.12,0,0,0-.69-2.63,2.55,2.55,0,0,0-2.09-.84Z"/><path class="cls-1" d="M135,26v4.45h-1.43V19.08h3.63a3.24,3.24,0,0,1,2.49,1,3.47,3.47,0,0,1,.91,2.53,3.48,3.48,0,0,1-.86,2.52,3.36,3.36,0,0,1-2.44.92Zm0-1.23h2.2a1.85,1.85,0,0,0,1.46-.57,2.36,2.36,0,0,0,.51-1.63,2.53,2.53,0,0,0-.52-1.65,1.79,1.79,0,0,0-1.44-.61H135Z"/><path class="cls-1" d="M144.35,30.45h-1.43V19.08h1.43Z"/><path class="cls-1" d="M154.39,26.84a4.21,4.21,0,0,1-1,2.8,3.49,3.49,0,0,1-2.64,1,3.25,3.25,0,0,1-2.72-1.3,5.63,5.63,0,0,1-1-3.53V23.72a5.46,5.46,0,0,1,1-3.51,3.42,3.42,0,0,1,2.82-1.29,3.27,3.27,0,0,1,2.55,1,4.23,4.23,0,0,1,1,2.82H153a3.5,3.5,0,0,0-.59-2,1.83,1.83,0,0,0-1.5-.59,2,2,0,0,0-1.79.91,4.79,4.79,0,0,0-.62,2.67v2.08a5,5,0,0,0,.58,2.65,1.88,1.88,0,0,0,1.7.92,2,2,0,0,0,1.61-.55,3.48,3.48,0,0,0,.61-2Z"/><path class="cls-1" d="M163.15,20.31h-3V30.45h-1.43V20.31h-3V19.08h7.4Z"/><path class="cls-1" d="M172,19.08v8.08a3.53,3.53,0,0,1-.94,2.54,4.13,4.13,0,0,1-5.15,0,3.54,3.54,0,0,1-.91-2.56V19.08h1.42v8a2.61,2.61,0,0,0,.49,1.72,2.51,2.51,0,0,0,3.16,0,2.61,2.61,0,0,0,.49-1.72v-8Z"/><path class="cls-1" d="M178.06,25.85h-2v4.6h-1.44V19.08h3.19a3.42,3.42,0,0,1,2.53.87,3.49,3.49,0,0,1,.86,2.55,3.55,3.55,0,0,1-.47,1.84,2.94,2.94,0,0,1-1.31,1.18l2.2,4.84v.09h-1.54Zm-2-1.22h1.73a1.86,1.86,0,0,0,1.43-.58,2.2,2.2,0,0,0,.54-1.55c0-1.46-.66-2.19-2-2.19h-1.71Z"/><path class="cls-1" d="M189,25.2h-4v4h4.69v1.22h-6.12V19.08h6v1.23h-4.61V24h4Z"/><path class="cls-2" d="M212.64,19H209.3a1.39,1.39,0,0,0-1.38-1.29h-3.49A1.37,1.37,0,0,0,203.06,19h-3.35a1.11,1.11,0,0,0-1.11,1.11v10.6a1.11,1.11,0,0,0,1.11,1.11h12.93a1.11,1.11,0,0,0,1.11-1.11V20.11A1.11,1.11,0,0,0,212.64,19Zm-6.46,9.7a3,3,0,1,1,3-3A3,3,0,0,1,206.18,28.7Z"/></svg>