<svg id="Layer_1" data-name="Layer 1" xmlns="http://www.w3.org/2000/svg" viewBox="0 0 22.22 24"><defs><style>.cls-1{fill:none;}.cls-1,.cls-2{stroke:#4d4d4d;stroke-miterlimit:10;}.cls-2{fill:#fff;stroke-width:0.5px;fill-rule:evenodd;}</style></defs><title>zion vem buttons</title><path class="cls-1" d="M2.92,20.75H15.56s-4.22-4.22-1.41-8.43S11.34,2.49,3.62,1.79c0,0,7.72,4.91,2.11,10.53S2.92,20.75,2.92,20.75Z"/><path class="cls-2" d="M19.43,18.3l-1.28-.74,1.28-.73a1.17,1.17,0,0,0-1.17-2L17,15.55V14.08a1.17,1.17,0,1,0-2.33,0v1.47l-1.28-.74a1.15,1.15,0,0,0-1.58.43,1.17,1.17,0,0,0,.42,1.59l1.28.73-1.28.74a1.17,1.17,0,0,0-.42,1.59,1.15,1.15,0,0,0,1.58.43l1.28-.74v1.47a1.17,1.17,0,0,0,2.33,0V19.58l1.27.73a1.15,1.15,0,0,0,1.59-.42A1.17,1.17,0,0,0,19.43,18.3Zm-3.61.43A1.17,1.17,0,1,1,17,17.56,1.16,1.16,0,0,1,15.82,18.73Z"/></svg>