<svg id="Layer_1" data-name="Layer 1" xmlns="http://www.w3.org/2000/svg" viewBox="0 0 22.22 24"><defs><style>.cls-1{fill:none;stroke:#4d4d4d;stroke-miterlimit:10;}</style></defs><title>zion vem buttons</title><circle class="cls-1" cx="9.92" cy="4.18" r="2.81"/><path class="cls-1" d="M17.2,8.36h0a1,1,0,0,0-1.44-.08L14.05,9.8,12.4,8.36a1.18,1.18,0,0,0-.25-.19h0A1.11,1.11,0,0,0,11.58,8H8.26a1,1,0,0,0-.34.06l-.06,0-.12.05-.07,0a1.12,1.12,0,0,0-.24.19l-2.28,2a.27.27,0,0,0-.07.08l0,0,0,.05a1,1,0,0,0-.23.64V14.4a1,1,0,1,0,2,0V11.65l.31-.27v4.68c0,.05,0,.09,0,.14s0,.1,0,.15v5.1a1.18,1.18,0,0,0,2.36,0V17.21h.9v4.24a1.18,1.18,0,1,0,2.36,0v-5.1a.77.77,0,0,0,0-.15.68.68,0,0,0,0-.14V11.35l.56.49h0a1,1,0,0,0,1.44.08L17.11,9.8A1,1,0,0,0,17.2,8.36Z"/></svg>